<svg width="170" height="197" viewBox="0 0 170 197" fill="none" xmlns="http://www.w3.org/2000/svg">
<g opacity="0.2">
<path d="M83.6188 151.622C102.22 151.622 117.3 147.577 117.3 142.586C117.3 137.596 102.22 133.55 83.6188 133.55C65.0172 133.55 49.9376 137.596 49.9376 142.586C49.9376 147.577 65.0172 151.622 83.6188 151.622Z" fill="#000072"/>
</g>
<path d="M85.0694 45.0996C79.1398 49.8201 72.0768 51.9506 65.3256 51.012C64.2636 48.7327 63.6065 46.2575 63.3515 43.7454C63.2848 43.1025 63.2465 42.4592 63.2346 41.8136C63.1964 39.8636 63.4012 37.9137 63.8539 36.0449C64.4752 33.4623 66.8854 31.907 69.2335 32.61C70.5884 33.0149 71.9195 33.543 73.2128 34.1807C76.2226 35.66 79.0208 37.7383 81.4093 40.2919C82.7761 41.746 84.0074 43.3563 85.0694 45.0996Z" fill="white"/>
<g opacity="0.6">
<path d="M81.4093 40.2928C77.354 38.0056 69.7958 34.0459 66.995 34.5866C64.4327 35.0834 63.6112 40.2536 63.3515 43.7454C63.2848 43.1025 63.2465 42.4592 63.2346 41.8136C63.1964 39.8636 63.4012 37.9137 63.8539 36.0449C64.4752 33.4623 66.8854 31.907 69.2335 32.61C70.5884 33.0149 71.9195 33.543 73.2128 34.1807C76.2226 35.6609 79.0208 37.7392 81.4093 40.2928Z" fill="white"/>
</g>
<path d="M130.946 108.776C130.881 111.186 130.474 113.583 129.736 115.852C129.274 117.282 128.679 118.662 127.952 119.958C127.424 120.899 126.826 121.801 126.157 122.629C125.157 123.868 123.999 124.943 122.685 125.729C122.473 125.852 122.259 125.972 122.04 126.082C120.051 127.088 117.82 127.415 115.627 127.415C110.864 127.415 108.083 125.162 107.728 121.524C109.833 121.68 111.843 120.567 113.298 118.858C113.631 118.463 113.936 118.039 114.205 117.592C114.446 117.198 114.655 116.782 114.836 116.356C114.996 115.977 115.136 115.593 115.253 115.201C115.754 113.572 115.925 111.837 115.884 110.091C115.853 108.917 115.727 107.741 115.544 106.591C115.525 106.481 115.508 106.374 115.487 106.264C115.356 105.493 115.206 104.719 115.08 103.948C114.842 102.516 114.687 101.081 114.894 99.6537C115.294 96.8855 117.145 94.4312 119.545 93.4824C119.957 93.3177 120.383 93.2001 120.814 93.1297C122.898 92.7714 125.126 93.4381 126.717 94.9724C127.898 96.112 128.71 97.6515 129.332 99.238C130.12 101.253 130.618 103.394 130.832 105.569C130.938 106.633 130.974 107.705 130.946 108.776Z" fill="#610992"/>
<g opacity="0.6">
<path d="M130.831 105.569C130.267 104.032 129.567 102.552 128.738 101.164C127.931 99.8107 126.99 98.5217 125.793 97.5706C124.597 96.6217 123.119 96.0334 121.647 96.1827C119.244 96.4286 117.299 98.6085 116.398 101.068C116.149 101.756 115.841 105.37 115.486 106.264C115.355 105.493 115.205 104.72 115.079 103.949C114.841 102.516 114.686 101.081 114.893 99.6539C115.293 96.8857 117.144 94.4315 119.544 93.4826C119.956 93.3179 120.382 93.2004 120.813 93.1299C122.897 92.7717 125.126 93.4383 126.717 94.9726C127.898 96.1123 128.71 97.6517 129.331 99.2383C130.119 101.253 130.617 103.394 130.831 105.569Z" fill="white"/>
</g>
<path d="M130.945 108.776C130.88 111.185 130.475 113.583 129.737 115.852C128.146 114.078 126.172 112.704 124.062 111.773C121.453 110.626 118.65 110.12 115.883 110.092C115.854 108.917 115.727 107.742 115.542 106.59C115.399 105.71 115.222 104.829 115.078 103.947C118.222 103.236 121.54 103.457 124.579 104.6C126.904 105.473 129.056 106.884 130.945 108.776Z" fill="white"/>
<path d="M126.156 122.63C125.156 123.868 123.999 124.942 122.684 125.729C121.593 124.041 120.121 122.63 118.514 121.528C116.871 120.399 115.085 119.56 113.296 118.858C113.926 118.117 114.452 117.266 114.836 116.356C114.995 115.978 115.135 115.594 115.253 115.203C117.698 115.393 120.095 116.315 122.103 117.858C123.711 119.095 125.06 120.729 126.156 122.63Z" fill="white"/>
<g opacity="0.2">
<path d="M130.946 108.776C130.881 111.186 130.474 113.583 129.736 115.852C129.274 117.282 128.679 118.662 127.952 119.958C127.424 120.899 126.826 121.801 126.157 122.629C125.157 123.868 123.999 124.943 122.685 125.729C122.473 125.852 122.259 125.972 122.04 126.082C120.051 127.088 117.82 127.415 115.627 127.415C110.864 127.415 108.083 125.162 107.728 121.524C109.833 121.68 111.843 120.567 113.298 118.858C113.631 118.463 113.936 118.039 114.205 117.592C116.253 122.642 125.036 120.395 126.981 109.696C128.696 100.262 123.654 95.1813 120.814 93.1292C122.897 92.7709 125.126 93.4376 126.717 94.9719C127.898 96.1115 128.71 97.651 129.331 99.2376C130.505 102.239 131.036 105.517 130.946 108.776Z" fill="#000072"/>
</g>
<path d="M115.628 128.461C110.505 128.461 107.198 125.91 106.781 121.635C106.751 121.328 106.847 121.022 107.042 120.799C107.237 120.577 107.512 120.456 107.794 120.481C109.477 120.607 111.23 119.755 112.601 118.144C113.169 117.475 113.63 116.726 113.972 115.916C114.118 115.571 114.245 115.22 114.35 114.873C114.778 113.477 114.973 111.88 114.931 110.12C114.905 109.071 114.798 107.975 114.605 106.772C114.535 106.344 114.457 105.914 114.378 105.482C114.296 105.032 114.214 104.582 114.141 104.132C113.914 102.766 113.713 101.143 113.953 99.4908C114.409 96.3298 116.478 93.5849 119.222 92.4984C121.966 91.4124 125.154 92.0748 127.344 94.1871C128.474 95.2773 129.411 96.7949 130.207 98.8269C131.409 101.901 131.994 105.352 131.898 108.809C131.829 111.35 131.404 113.838 130.634 116.205C130.146 117.713 129.517 119.161 128.763 120.506C128.191 121.527 127.554 122.476 126.87 123.324C125.737 124.727 124.482 125.844 123.14 126.647C122.901 126.789 122.666 126.919 122.438 127.034C120.538 127.994 118.31 128.461 115.628 128.461ZM108.888 122.536C109.856 125.841 113.439 126.37 115.627 126.37C118.028 126.37 119.996 125.965 121.641 125.133C121.832 125.037 122.03 124.928 122.23 124.809C123.376 124.124 124.458 123.157 125.443 121.936C126.054 121.179 126.625 120.329 127.14 119.409C127.823 118.189 128.395 116.875 128.839 115.502C129.542 113.341 129.93 111.068 129.993 108.745C129.993 108.745 129.993 108.745 129.993 108.744C130.081 105.591 129.549 102.447 128.456 99.6517C127.774 97.9117 126.999 96.6381 126.086 95.7574C124.436 94.1652 121.937 93.646 119.867 94.4647C117.799 95.2834 116.178 97.4349 115.834 99.8178C115.639 101.16 115.816 102.564 116.015 103.759C116.087 104.199 116.166 104.635 116.246 105.072C116.327 105.517 116.408 105.961 116.481 106.405C116.691 107.714 116.807 108.909 116.836 110.064C116.883 112.071 116.655 113.912 116.156 115.536C116.03 115.952 115.877 116.378 115.701 116.795C115.274 117.806 114.7 118.739 113.993 119.571C112.547 121.269 110.737 122.31 108.888 122.536Z" fill="#000072"/>
<path d="M73.546 45.1625C72.6603 45.6304 71.7669 46.0539 70.8668 46.4225C69.5378 46.9716 68.1901 47.4003 66.8161 47.6694C65.5564 43.9132 65.3945 39.7679 66.5683 36.1189C66.7541 36.2341 66.9351 36.354 67.1136 36.4795C70.0763 38.5204 72.2506 41.6413 73.546 45.1625Z" fill="#FFE04D"/>
<g opacity="0.2">
<path d="M85.0678 44.2297C79.1382 48.9502 72.0751 51.0808 65.324 50.1422C63.9903 47.2802 63.2929 44.1066 63.233 40.9442C63.9045 41.3887 64.6593 41.6943 65.4285 41.8408C66.3737 42.0213 67.3431 41.9793 68.2837 41.7624C67.4383 39.8596 67.0359 37.7239 67.1119 35.6093C68.8693 36.8194 70.3483 38.4115 71.5315 40.2412C72.3029 39.6426 72.9557 38.8794 73.3318 37.9385C73.9128 36.4854 73.7606 34.7938 73.2103 33.3118C77.9405 35.6382 82.1484 39.4383 85.0678 44.2297Z" fill="#000072"/>
</g>
<path d="M68.5046 52.2767C67.4017 52.2767 66.301 52.2016 65.2053 52.0496C64.8925 52.0062 64.6197 51.7958 64.4764 51.4879C62.2439 46.689 61.6812 40.9632 62.9324 35.7785C63.3026 34.2451 64.1942 32.966 65.4433 32.1762C66.6784 31.3953 68.1127 31.1919 69.4834 31.6029C76.0989 33.586 82.0685 38.2934 85.8612 44.5179C86.1459 44.9849 86.0431 45.6156 85.6287 45.9454C80.4275 50.0861 74.4516 52.2767 68.5046 52.2767ZM65.9499 50.0389C72.03 50.7401 78.2962 48.9077 83.7464 44.8412C80.1921 39.4461 74.8605 35.382 68.9814 33.6195C68.1047 33.3569 67.1858 33.4875 66.394 33.9876C65.5882 34.497 65.0128 35.3232 64.7739 36.3131C63.6842 40.8288 64.1152 45.7985 65.9499 50.0389Z" fill="#000072"/>
<path d="M66.8161 48.454C66.5216 48.454 66.2508 48.2534 66.1463 47.9409C64.7833 43.8809 64.6945 39.5896 65.896 35.8571C65.9665 35.6383 66.1216 35.4648 66.3201 35.3836C66.5182 35.3024 66.7392 35.322 66.9232 35.4373C70.1183 37.4353 72.7053 40.7843 74.2073 44.8685C74.3484 45.252 74.1941 45.6895 73.8545 45.8687C71.3844 47.1716 69.1238 48.0136 66.9427 48.4419C66.8998 48.4503 66.8577 48.454 66.8161 48.454ZM66.9759 37.3121C66.227 40.2795 66.3341 43.5814 67.2874 46.7699C68.9755 46.3785 70.7299 45.7212 72.6178 44.7729C71.3411 41.651 69.3708 39.0475 66.9759 37.3121Z" fill="#000072"/>
<path d="M118.677 80.1413C117.708 85.3376 114.641 89.9928 110.519 92.7349C109.716 93.2732 108.871 93.736 107.994 94.1176C108.168 94.4339 108.335 94.753 108.499 95.0744C111.509 101.029 112.843 108.201 112.217 115.175C111.555 122.53 108.719 129.629 104.24 135.147C104.552 145.2 95.0622 145.127 89.4254 144.654C87.3038 144.479 85.1129 143.886 83.4958 142.364C81.8791 140.843 81.548 138.64 81.548 136.183C81.341 138.799 80.7384 140.234 79.1047 141.648C77.471 143.06 75.3685 143.695 73.292 143.833C71.2154 143.969 69.1414 143.645 67.0814 143.321C65.3551 143.049 63.4451 142.665 62.4022 141.131C61.695 140.093 61.5403 138.7 61.7281 137.417C61.9113 136.133 62.4043 134.936 62.8926 133.752C51.1741 114.618 61.2232 102.72 64.3427 99.7011C64.5523 99.5001 64.7333 99.3354 64.8714 99.2122C65.0763 99.0317 65.1927 98.9403 65.1927 98.9403C65.1927 98.9403 50.8214 96.7864 47.4231 80.549C46.4252 75.7893 46.7635 71.7718 47.7469 68.4652C47.7635 68.3999 47.7852 68.3318 47.8039 68.2665C50.24 60.3281 56.3693 56.5774 56.3693 56.5774C56.3693 56.5774 62.3108 46.7804 71.5597 43.4534C80.2683 40.3194 88.4551 41.5216 89.3791 41.6732C89.436 41.6835 89.4649 41.6891 89.4649 41.6891C89.4649 41.6891 95.0634 31.4088 100.374 33.0476C100.464 33.0765 100.555 33.105 100.643 33.1367C100.702 33.16 100.762 33.181 100.819 33.2048C100.905 33.2389 100.99 33.2729 101.076 33.3093C101.136 33.3382 101.198 33.3644 101.257 33.3928C101.317 33.4217 101.376 33.4502 101.434 33.4791C101.493 33.508 101.551 33.5393 101.61 33.5706C101.784 33.6648 101.955 33.7665 102.124 33.8766C102.181 33.913 102.239 33.9498 102.294 33.989C103.079 34.5222 103.813 35.2173 104.496 36.0407C104.592 36.1559 104.685 36.2707 104.78 36.391C104.835 36.4615 104.889 36.5324 104.944 36.6051C104.994 36.6705 105.042 36.7358 105.092 36.8039C105.189 36.9373 105.285 37.0707 105.38 37.2093C105.427 37.2774 105.473 37.345 105.521 37.4159C105.709 37.6958 105.892 37.9855 106.073 38.2836C106.164 38.4324 106.252 38.584 106.34 38.7384C106.426 38.8901 106.511 39.0417 106.595 39.1961C106.814 39.5935 107.026 40.0036 107.231 40.4272C107.271 40.5107 107.312 40.5946 107.352 40.6782C107.593 41.1801 107.824 41.6951 108.045 42.2227C108.081 42.3062 108.117 42.3902 108.153 42.476C108.619 43.5998 109.053 44.7787 109.455 45.9865C109.505 46.1381 109.555 46.2925 109.605 46.4441C109.731 46.8308 109.855 47.218 109.974 47.6099C109.986 47.6463 109.995 47.6803 110.005 47.7144C110.032 47.7927 110.055 47.8739 110.079 47.9523C110.108 48.0465 110.134 48.1403 110.162 48.2345C110.253 48.5326 110.341 48.833 110.424 49.1335C111.151 51.6768 111.76 54.2463 112.281 56.6143C112.32 56.7892 112.358 56.9646 112.396 57.1395C112.889 59.403 113.301 61.4654 113.658 63.1201C114.918 64.2938 115.97 65.7054 116.797 67.271C117.333 68.28 117.773 69.3544 118.118 70.4702C119.067 73.5384 119.282 76.9182 118.677 80.1413Z" fill="white"/>
<g opacity="0.2">
<path d="M118.677 80.0498C117.708 85.2461 114.64 89.9013 110.518 92.6434C109.266 93.3021 107.947 93.9557 106.561 94.5985C92.656 101.047 72.5004 99.8681 64.8708 99.1203C65.0756 98.9398 65.1921 98.8483 65.1921 98.8483C65.1921 98.8483 50.8207 96.6945 47.4224 80.457C46.4054 75.6003 46.7772 71.5175 47.8036 68.1746C47.0943 74.4872 49.6337 81.1283 54.808 84.9891C72.3108 98.0455 101.458 89.1022 108.14 85.7266C118.689 80.3969 117.896 76.0561 118.117 70.3778C119.067 73.4469 119.282 76.8267 118.677 80.0498Z" fill="#000072"/>
</g>
<path d="M108.597 95.0043C106.65 95.8711 104.66 96.6292 102.641 97.2827L101.122 97.7571L99.5912 98.1877L98.0527 98.5847L96.5044 98.9346C94.4368 99.3848 92.3475 99.7099 90.2523 99.9446C89.7278 99.9978 89.2034 100.049 88.6781 100.085C88.1519 100.112 87.6253 100.133 87.0988 100.137L86.3083 100.125L85.5182 100.093C84.9908 100.05 84.4646 100.008 83.9389 99.9245C83.6312 99.8755 83.4174 99.562 83.462 99.2243C83.496 98.9654 83.672 98.7676 83.8904 98.7107L83.904 98.7074C84.4162 98.5768 84.9274 98.4868 85.4383 98.3967L86.2033 98.26L86.9679 98.1425C87.4766 98.0562 87.9853 97.9801 88.494 97.9139C89.0019 97.836 89.5102 97.7655 90.0194 97.7016C92.0521 97.4194 94.0713 97.0373 96.0777 96.5928L97.5784 96.2368L99.0753 95.859L100.565 95.448L102.05 95.0146C104.026 94.4147 105.986 93.749 107.939 93.0422C108.439 92.8608 108.978 93.1584 109.143 93.707C109.301 94.2313 109.056 94.7977 108.597 95.0043Z" fill="#000072"/>
<path d="M116.796 67.2705C113.855 68.7815 110.704 69.576 107.558 69.5578C101.498 69.5214 95.3922 66.3165 92.0249 60.7857C89.9412 57.3695 88.953 53.2396 88.8175 49.133C88.758 47.379 88.8506 45.6277 89.058 43.8895C89.1439 43.1473 89.2531 42.4075 89.3793 41.6732C89.4363 41.6835 89.4652 41.6891 89.4652 41.6891C89.4652 41.6891 95.0637 31.4088 100.374 33.0476C100.465 33.0765 100.555 33.105 100.643 33.1367C100.703 33.16 100.762 33.181 100.819 33.2048C100.905 33.2389 100.991 33.2729 101.077 33.3093C101.136 33.3382 101.198 33.3644 101.258 33.3928C101.317 33.4217 101.377 33.4502 101.434 33.4791C101.494 33.508 101.551 33.5393 101.61 33.5706C101.784 33.6648 101.955 33.7665 102.125 33.8766C102.182 33.913 102.239 33.9498 102.294 33.989C103.08 34.5222 103.813 35.2173 104.497 36.0407C104.592 36.1559 104.685 36.2707 104.78 36.391C104.835 36.4615 104.89 36.5324 104.945 36.6051C104.995 36.6705 105.042 36.7358 105.092 36.8039C105.19 36.9373 105.285 37.0707 105.38 37.2093C105.428 37.2774 105.473 37.345 105.521 37.4159C105.709 37.6958 105.892 37.9855 106.073 38.2836C106.164 38.4324 106.252 38.584 106.34 38.7384C106.426 38.8901 106.511 39.0417 106.595 39.1961C106.815 39.5935 107.026 40.0036 107.231 40.4272C107.271 40.5107 107.312 40.5946 107.353 40.6782C107.593 41.1801 107.824 41.6951 108.046 42.2227C108.081 42.3062 108.117 42.3902 108.153 42.476C108.619 43.5998 109.053 44.7787 109.455 45.9865C109.506 46.1381 109.555 46.2925 109.605 46.4441C109.732 46.8308 109.855 47.218 109.974 47.6099C109.986 47.6463 109.998 47.6831 110.01 47.7195C110.031 47.7979 110.055 47.8739 110.079 47.9523C110.108 48.0465 110.134 48.1403 110.163 48.2345C110.253 48.5326 110.341 48.833 110.424 49.1335C111.151 51.6768 111.76 54.2463 112.282 56.6143C112.32 56.7892 112.358 56.9646 112.396 57.1395C112.889 59.403 113.301 61.4654 113.658 63.1201C114.917 64.2933 115.969 65.7049 116.796 67.2705Z" fill="#610992"/>
<g opacity="0.6">
<path d="M110.009 47.7185C110.006 47.7157 110.004 47.7157 110.004 47.7134C107.296 42.4648 102.748 35.0526 99.0671 35.0069C94.6267 34.9514 90.4179 44.5426 90.4179 44.5426C90.4179 44.5426 69.6592 39.2077 58.0916 58.6444C58.0916 58.6444 52.3859 61.3548 47.7471 68.4647C47.7636 68.3994 47.7853 68.3313 47.804 68.266C50.2401 60.3276 56.3695 56.5769 56.3695 56.5769C56.3695 56.5769 62.311 46.78 71.5598 43.4529C80.2685 40.3189 88.4553 41.5211 89.3792 41.6727C89.4362 41.683 89.4651 41.6886 89.4651 41.6886C89.4651 41.6886 95.0636 31.4083 100.374 33.0471C100.464 33.076 100.555 33.1045 100.643 33.1362C100.702 33.1595 100.762 33.1805 100.819 33.2043C100.905 33.2384 100.991 33.2724 101.076 33.3088C101.136 33.3378 101.198 33.3639 101.258 33.3923C101.317 33.4213 101.377 33.4497 101.434 33.4786C101.493 33.5076 101.551 33.5388 101.61 33.5701C101.784 33.6643 101.955 33.766 102.125 33.8761C102.181 33.9125 102.239 33.9493 102.294 33.9885C103.08 34.5217 103.813 35.2168 104.496 36.0402C104.592 36.1554 104.685 36.2702 104.78 36.3905C104.835 36.461 104.89 36.5319 104.944 36.6047C104.995 36.67 105.042 36.7353 105.092 36.8034C105.19 36.9368 105.285 37.0702 105.38 37.2088C105.428 37.2769 105.473 37.3445 105.521 37.4154C105.709 37.6953 105.892 37.985 106.073 38.2831C106.164 38.4319 106.252 38.5835 106.34 38.738C106.426 38.8896 106.511 39.0412 106.595 39.1956C106.814 39.5931 107.026 40.0031 107.231 40.4267C107.271 40.5102 107.312 40.5942 107.352 40.6777C107.593 41.1796 107.824 41.6946 108.046 42.2222C108.081 42.3057 108.117 42.3897 108.153 42.4756C108.619 43.5994 109.053 44.7782 109.455 45.986C109.506 46.1376 109.555 46.292 109.605 46.4436C109.732 46.8303 109.855 47.2175 109.974 47.6094C109.985 47.6458 109.997 47.6822 110.009 47.7185Z" fill="white"/>
</g>
<g opacity="0.2">
<path d="M113.657 63.1196C113.657 63.1196 109.109 62.7874 108.144 59.876C107.332 57.4241 106.408 40.5858 101.258 33.3923C108.832 36.9653 111.895 54.975 113.657 63.1196Z" fill="#000072"/>
</g>
<path d="M92.8758 145.862C91.6688 145.862 90.4763 145.792 89.3513 145.697C86.6024 145.467 84.4234 144.613 82.8756 143.158C82.1076 142.436 81.5933 141.595 81.2512 140.7C80.8492 141.339 80.3379 141.911 79.6932 142.468C78.0641 143.878 75.8699 144.71 73.3479 144.875C71.1638 145.021 69.0193 144.683 66.9457 144.357C64.9401 144.04 62.8785 143.579 61.6387 141.756C60.8372 140.58 60.5342 138.98 60.7862 137.251C60.9626 136.03 61.3867 134.886 61.8075 133.85C54.8264 122.159 55.8893 113.117 58.0364 107.562C59.521 103.721 61.6791 101.02 63.1211 99.5084C61.6311 99.0629 59.4411 98.2302 57.1036 96.7364C53.2752 94.2896 48.3269 89.5351 46.4943 80.7817C44.6409 71.9242 47.2929 65.5654 49.8441 61.7909C52.2377 58.2497 54.9446 56.2988 55.7023 55.7936C56.642 54.3115 62.4424 45.6323 71.2641 42.4592C79.2554 39.5841 86.8174 40.2741 88.9858 40.5605C90.3356 38.2821 95.4271 30.4328 100.632 32.0408C108.68 34.5235 112.055 50.7493 114.071 60.4437C114.227 61.1957 114.374 61.9015 114.513 62.5504C115.731 63.7376 116.776 65.1479 117.62 66.747C119.751 70.7664 120.477 75.7257 119.611 80.3516C118.469 86.4674 114.497 91.9436 109.353 94.6106C112.46 100.765 113.811 108.056 113.163 115.278C112.494 122.719 109.67 129.894 105.197 135.532C105.214 138.523 104.394 140.912 102.755 142.635C100.302 145.217 96.5227 145.862 92.8758 145.862ZM81.5457 135.138C81.5598 135.138 81.5734 135.138 81.5874 135.139C82.097 135.163 82.4986 135.623 82.4986 136.183C82.4986 138.929 82.9669 140.49 84.1149 141.571C85.3482 142.731 87.1587 143.418 89.4958 143.612C93.3038 143.932 98.6847 144.021 101.437 141.125C102.762 139.731 103.367 137.787 103.286 135.182C103.277 134.913 103.364 134.651 103.527 134.45C107.877 129.094 110.626 122.212 111.268 115.073C111.912 107.887 110.46 100.637 107.178 94.6577C107.033 94.3946 107.002 94.0746 107.091 93.783C107.181 93.4919 107.383 93.2587 107.643 93.1458C112.69 90.9546 116.655 85.7676 117.745 79.9312V79.9308C118.518 75.8018 117.872 71.3789 115.973 67.7966C115.182 66.2987 114.196 64.993 113.04 63.9149C112.885 63.7707 112.776 63.5762 112.73 63.3598C112.569 62.618 112.398 61.7951 112.214 60.9088C110.418 52.2734 107.074 36.2001 100.116 34.0538C96.3421 32.8875 91.7377 39.5566 90.282 42.224C90.0874 42.5809 89.7142 42.7773 89.3381 42.7237C89.3381 42.7237 89.2969 42.7181 89.2174 42.7031C88.3551 42.5623 80.3723 41.3829 71.8566 44.4464C63.0412 47.6177 57.2183 57.0615 57.1605 57.1562C57.0768 57.2943 56.9637 57.4086 56.832 57.4893C56.8035 57.5066 53.8374 59.3609 51.3282 63.1036C48.0009 68.0667 46.9988 73.8569 48.3498 80.3138C49.6924 86.7277 52.9386 91.6311 57.9982 94.8891C61.813 97.3457 65.2874 97.898 65.3222 97.9032C65.7085 97.9619 66.0239 98.274 66.117 98.6901C66.2096 99.1063 66.0626 99.5424 65.7447 99.7906C65.7077 99.8195 61.8942 102.863 59.756 108.466C56.9017 115.944 58.2226 124.255 63.6821 133.169C63.8662 133.47 63.8955 133.854 63.7591 134.184C63.3043 135.286 62.8338 136.425 62.6668 137.58C62.4989 138.73 62.6804 139.795 63.1636 140.504C63.9673 141.687 65.6061 142.033 67.2152 142.287C69.1944 142.599 71.2416 142.921 73.2323 142.788C74.7198 142.69 76.8427 142.271 78.5129 140.826C79.9018 139.625 80.408 138.474 80.5963 136.093C80.6405 135.55 81.0544 135.138 81.5457 135.138Z" fill="#000072"/>
<path d="M107.509 89.679C107.371 90.0503 107.211 90.4081 107.03 90.7557C105.392 93.8896 102.206 95.8396 98.917 96.161C98.9481 96.161 98.9765 96.1638 99.0076 96.169H99.0101C102.184 96.4041 105.192 98.9264 106.083 102.306L106.942 107.281C104.992 111.084 100.553 112.916 96.6666 112.001C92.7804 111.086 89.5679 107.754 87.9988 103.744C86.975 101.133 86.5984 98.2733 86.7106 95.424C86.7726 93.8999 86.9724 92.3814 87.2916 90.9022C88.3919 85.7945 91.0851 80.8337 95.3764 78.5203C98.6625 76.7481 102.961 76.8554 105.676 79.5527C106.607 80.4778 107.274 81.6543 107.678 82.9428C108.352 85.0919 108.295 87.5541 107.509 89.679Z" fill="white"/>
<g opacity="0.6">
<path d="M107.509 89.679C107.511 86.7723 106.778 79.6208 99.4502 79.9553C90.6774 80.3579 87.0602 94.1224 86.7529 95.3615C86.7385 95.4216 86.7317 95.4529 86.7317 95.4529L86.7104 95.424C86.7725 93.8999 86.9722 92.3814 87.2914 90.9022C88.3917 85.7945 91.0849 80.8337 95.3762 78.5203C98.6623 76.7481 102.961 76.8554 105.676 79.5527C106.607 80.4778 107.274 81.6543 107.678 82.9428C108.351 85.0919 108.294 87.5541 107.509 89.679Z" fill="white"/>
</g>
<g opacity="0.2">
<path d="M107.03 90.7563C105.392 93.8903 102.205 95.8402 98.9168 96.1617C98.9478 96.1617 98.9763 96.1645 99.0073 96.1696C98.9193 96.1724 98.836 96.1724 98.7574 96.1775C98.0766 96.1957 97.6643 96.2064 97.6643 96.2064C97.6643 96.2064 92.1015 96.826 91.7968 94.2723C91.4895 91.7187 93.94 90.796 97 90.5422C99.9529 90.2992 106.982 90.6024 107.678 82.9438C108.468 85.4657 108.254 88.4196 107.03 90.7563Z" fill="#000072"/>
</g>
<path d="M64.8802 97.8262C65.8653 97.9867 66.8913 98.1393 67.9007 98.282C68.9143 98.4262 69.9305 98.5521 70.9479 98.6701C71.9654 98.7854 72.9841 98.8815 74.0045 98.9692L74.7704 99.0359L75.5371 99.0928C76.0496 99.145 76.56 99.1576 77.0756 99.2099L77.0955 99.2117C77.3612 99.2388 77.5562 99.4968 77.532 99.7879C77.5112 100.034 77.3399 100.225 77.1274 100.262C76.0857 100.444 75.0334 100.57 73.9816 100.615C72.9292 100.664 71.8757 100.668 70.8255 100.619C69.7745 100.579 68.7256 100.498 67.6801 100.38C66.6308 100.26 65.6018 100.106 64.5432 99.884C64.0264 99.7757 63.6876 99.2281 63.7862 98.6608C63.8823 98.1085 64.3574 97.7413 64.8594 97.8225L64.8802 97.8262Z" fill="#000072"/>
<path d="M107.275 107.488C106.924 108.419 106.385 109.269 105.738 110.001C105.659 110.095 105.575 110.184 105.493 110.275C105.408 110.362 105.318 110.442 105.23 110.526C105.051 110.69 104.88 110.867 104.686 111.008C104.493 111.15 104.308 111.31 104.107 111.437C103.905 111.566 103.706 111.7 103.502 111.823C101.84 112.758 99.9581 113.166 98.0906 113.079C96.2083 112.966 94.3991 112.287 92.8117 111.243C91.2294 110.183 89.8716 108.767 88.7857 107.14C87.7092 105.503 86.9318 103.633 86.4563 101.703C85.9862 99.7664 85.7984 97.7661 85.8417 95.7849C85.894 93.8022 86.16 91.8401 86.6331 89.9336C86.874 88.9814 87.1494 88.0372 87.4992 87.1234L87.6259 86.7786L87.7657 86.4399C87.8605 86.2146 87.9506 85.9874 88.0496 85.764C88.257 85.3222 88.4555 84.8758 88.6901 84.4489C88.9081 84.0123 89.1639 83.599 89.4091 83.1791C89.5383 82.9738 89.6748 82.7728 89.8078 82.5699C89.9379 82.3646 90.0802 82.1687 90.226 81.9755C90.7904 81.1881 91.4343 80.4636 92.1275 79.7998C92.8143 79.1266 93.5852 78.5533 94.3889 78.0504C95.1858 77.5401 96.0732 77.1473 96.9691 76.8748C98.7681 76.3337 100.693 76.2478 102.537 76.7517C103.457 77.0045 104.353 77.4122 105.164 77.9837C105.974 78.5524 106.702 79.289 107.278 80.1441C108.429 81.8617 108.974 83.967 108.979 86.0397C108.981 87.079 108.848 88.1189 108.576 89.12C108.308 90.1183 107.886 91.0881 107.348 91.9432C106.271 93.666 104.749 94.9937 103.063 95.8623C101.375 96.7314 99.511 97.1778 97.6418 97.1158H97.6337C97.1752 97.1004 96.8148 96.6801 96.8288 96.1772C96.8416 95.7196 97.1595 95.351 97.5619 95.2992C98.5768 95.1682 99.6036 95.2638 100.574 95.5451C101.546 95.8264 102.465 96.2892 103.292 96.897C104.119 97.5044 104.864 98.2568 105.442 99.1521C106.019 100.043 106.441 101.071 106.59 102.147C106.634 102.466 106.435 102.765 106.143 102.814C105.903 102.854 105.675 102.711 105.578 102.48L105.574 102.468C105.219 101.622 104.785 100.847 104.253 100.155C103.722 99.4646 103.109 98.8451 102.418 98.3511C101.038 97.364 99.355 96.8769 97.7659 97.1097L97.686 95.2932C99.2832 95.3207 100.896 94.9419 102.34 94.1862C103.781 93.4323 105.061 92.3062 105.954 90.8894C106.846 89.4839 107.298 87.7699 107.297 86.0434C107.298 84.323 106.843 82.5908 105.934 81.2324C105.032 79.8753 103.651 78.9437 102.131 78.5356C100.608 78.1208 98.958 78.1894 97.4208 78.6573C96.649 78.8957 95.9146 79.2185 95.2151 79.6692C94.5172 80.1095 93.8436 80.6082 93.2393 81.2049C92.629 81.7917 92.0569 82.435 91.552 83.1441C91.4215 83.3172 91.2936 83.4931 91.1772 83.6792C91.0577 83.863 90.9349 84.0435 90.8185 84.2292C90.5975 84.6108 90.3654 84.984 90.1682 85.3833C88.526 88.5313 87.6705 92.1975 87.5557 95.8357C87.5124 97.656 87.6828 99.4767 88.1014 101.219C88.5268 102.962 89.2137 104.602 90.1563 106.061C91.1041 107.512 92.2936 108.776 93.6638 109.716C95.0366 110.641 96.5955 111.239 98.1799 111.353C99.7741 111.452 101.392 111.091 102.848 110.36C104.305 109.623 105.598 108.526 106.609 107.077L106.614 107.07C106.744 106.884 106.985 106.849 107.155 106.991C107.295 107.109 107.34 107.315 107.275 107.488Z" fill="#000072"/>
<path d="M64.9278 90.1653C64.9253 90.6621 64.9066 91.1561 64.873 91.6474C64.649 94.9357 63.8275 98.135 63.0107 101.306C62.3536 101.855 61.7318 102.5 61.1653 103.227C60.4675 104.121 59.8482 105.135 59.3438 106.227C58.6485 107.728 58.1627 109.377 57.9604 111.073C55.6458 109.51 53.9072 106.943 53.2097 104.055C52.8621 102.61 52.7741 101.091 52.9407 99.604C53.1073 98.1247 53.5217 96.6818 54.1741 95.3775C51.6283 94.4156 49.4591 92.2459 48.4519 89.5042C47.754 87.6014 47.6422 85.4424 48.1233 83.4635C48.3329 82.593 48.6593 81.7594 49.0996 80.9962C49.5114 80.2825 50.0235 79.6424 50.607 79.0934C50.607 79.0906 50.607 79.0906 50.607 79.0906C52.0644 77.713 53.9743 76.9078 55.8962 76.9759C58.8967 77.0832 61.64 79.2501 63.1594 82.0939C64.4514 84.5118 64.9444 87.3504 64.9278 90.1653Z" fill="white"/>
<g opacity="0.6">
<path d="M64.9278 90.0083H64.7111C64.7111 90.0083 62.1819 81.6089 57.5315 79.7042C52.8735 77.7967 50.0413 80.8378 48.1229 83.3061C48.3324 82.4356 48.6588 81.6019 49.0991 80.8388C49.5109 80.125 50.0231 79.485 50.6066 78.9359C50.6066 78.9331 50.6066 78.9331 50.6066 78.9331C52.0639 77.5555 53.9739 76.7503 55.8957 76.8185C58.8962 76.9258 61.6396 79.0926 63.159 81.9364C64.4518 84.3548 64.9444 87.1934 64.9278 90.0083Z" fill="white"/>
</g>
<path d="M59.343 106.071C58.6481 107.57 58.1619 109.221 57.9613 110.917C55.6446 109.353 53.9064 106.786 53.2098 103.899C52.8613 102.452 52.7746 100.933 52.9399 99.4464C54.1053 99.1614 55.4083 99.4053 56.43 100.109C58.054 101.227 59.0068 103.279 59.2763 105.362C59.3056 105.598 59.3294 105.836 59.343 106.071Z" fill="#610992"/>
<g opacity="0.2">
<path d="M61.2193 103.808C60.5214 104.702 59.9022 105.716 59.3977 106.808C58.7024 108.309 58.2166 109.958 58.0143 111.654C55.6998 110.091 53.9611 107.524 53.2637 104.636C52.916 103.191 52.8281 101.672 52.9947 100.185C53.1613 98.7057 53.5756 97.2628 54.228 95.9584C51.6823 94.9965 49.5131 92.8268 48.5058 90.0852C47.5007 87.3431 47.7128 84.0734 49.1535 81.5772C49.5653 80.8634 50.0775 80.2234 50.661 79.6743C50.6346 79.8311 49.5203 86.7371 53.7567 88.619C58.0432 90.5246 61.62 89.628 61.8223 92.4275C62.0246 95.2298 60.6102 98.6483 56.9476 98.596C56.9472 98.5956 56.7376 104.289 61.2193 103.808Z" fill="#000072"/>
</g>
<path d="M57.9613 111.962C57.7879 111.962 57.6149 111.911 57.4623 111.808C54.9349 110.101 53.0491 107.316 52.2888 104.167C51.9106 102.595 51.8115 100.964 51.9943 99.3194C52.1354 98.0747 52.4286 96.8852 52.8694 95.7688C50.4732 94.5489 48.5318 92.3596 47.5688 89.7388C46.434 86.6455 46.7124 83.0212 48.2951 80.2796C49.9364 77.4344 52.9301 75.6622 55.926 75.7732C59.0994 75.8875 62.1858 78.0465 63.9797 81.4081C65.4489 84.1572 66.086 87.6704 65.8221 91.568C65.5922 94.9655 64.7456 98.2534 63.9266 101.433C63.8701 101.652 63.7506 101.844 63.5857 101.982C62.2219 103.117 61.0485 104.694 60.1921 106.544C59.5304 107.972 59.0858 109.531 58.9056 111.051C58.864 111.403 58.6625 111.708 58.371 111.86C58.2414 111.929 58.1011 111.962 57.9613 111.962ZM55.662 77.8599C53.3972 77.8599 51.1549 79.2309 49.9046 81.3988C48.644 83.582 48.426 86.478 49.3359 88.957C50.2254 91.3777 52.1503 93.3496 54.4844 94.2317C54.75 94.332 54.9621 94.5559 55.0632 94.8438C55.1644 95.1316 55.1448 95.4535 55.0092 95.724C54.4198 96.9015 54.0415 98.1974 53.8855 99.5755C53.7325 100.954 53.815 102.319 54.1308 103.633C54.6446 105.761 55.773 107.69 57.3021 109.106C57.569 107.908 57.9681 106.733 58.4942 105.597C59.4267 103.583 60.6966 101.84 62.1786 100.536C62.9444 97.5583 63.7149 94.4874 63.9228 91.4136C64.0868 88.9925 63.9444 85.4746 62.3367 82.4661C60.8921 79.7595 58.3514 77.9532 55.8635 77.8636C55.7963 77.8613 55.7288 77.8599 55.662 77.8599Z" fill="#000072"/>
<path d="M54.4032 94.2225C54.8061 94.2789 55.2022 94.333 55.6051 94.3531C56.0076 94.3774 56.4139 94.3694 56.8257 94.3382C57.2363 94.299 57.6507 94.2346 58.0744 94.1558C58.5007 94.0802 58.9274 93.9729 59.3919 93.8782L59.4106 93.8745C59.6507 93.8255 59.8815 93.9995 59.9261 94.2631C59.9512 94.4119 59.9104 94.5588 59.8284 94.6661C59.4875 95.106 59.0621 95.4475 58.6061 95.7302C58.1475 96.0101 57.649 96.2135 57.1313 96.345C56.6154 96.4841 56.0782 96.548 55.5401 96.5387C55.0025 96.5256 54.4615 96.4411 53.9498 96.2541C53.4491 96.0707 53.1788 95.4769 53.3454 94.9274C53.492 94.4441 53.9285 94.1562 54.3718 94.2183L54.4032 94.2225Z" fill="#000072"/>
<path d="M92.9523 70.5629C92.4241 70.9982 91.9073 71.3779 91.4041 71.7712C90.8987 72.1579 90.4049 72.5544 89.9552 73.0064C89.0525 73.9045 88.2731 74.9247 87.616 76.0247C86.9586 77.127 86.452 78.3423 86.0775 79.62C85.704 80.901 85.4927 82.2459 85.3929 83.6454L85.3924 83.6506C85.375 83.8974 85.1787 84.0812 84.9538 84.062C84.7753 84.0466 84.6325 83.9067 84.5905 83.7266C84.2509 82.2655 84.2437 80.7079 84.4851 79.1974C84.7256 77.6836 85.245 76.2141 85.9917 74.892C86.7384 73.5676 87.7376 72.428 88.8762 71.5295C89.4474 71.0831 90.0407 70.6721 90.6748 70.353C91.311 70.0409 91.9867 69.8179 92.6888 69.7647C92.9103 69.7479 93.1024 69.9317 93.1177 70.1748C93.1274 70.3287 93.0641 70.4696 92.96 70.5564L92.9523 70.5629Z" fill="#000072"/>
<path d="M61.9974 68.6589C63.1934 69.0256 64.3077 69.7085 65.2839 70.5734C66.2525 71.4505 67.0906 72.5178 67.7137 73.7279C68.0299 74.3292 68.2976 74.9599 68.5063 75.6126C68.7213 76.2624 68.8786 76.9323 68.9823 77.6101C69.1888 78.9648 69.1833 80.3569 68.919 81.6827C68.8501 82.0283 68.5386 82.2471 68.2237 82.1716C67.9517 82.1062 67.7655 81.8417 67.7647 81.5483V81.5399C67.7604 80.3252 67.6325 79.1323 67.3579 77.9866C67.2211 77.4142 67.0481 76.8549 66.8462 76.3114C66.6376 75.7707 66.4017 75.2445 66.1305 74.7425C65.5793 73.7447 64.9121 72.8201 64.133 72.0079C63.3621 71.1841 62.4857 70.4792 61.538 69.8466L61.5303 69.8415C61.2507 69.6549 61.1619 69.2546 61.3319 68.9477C61.4725 68.693 61.7479 68.5829 61.9974 68.6589Z" fill="#000072"/>
<path d="M85.7506 79.7579C84.0557 81.0683 81.9103 81.6178 79.8542 81.2572C78.827 81.0767 77.8363 80.6652 76.9544 80.0667C76.0713 79.4691 75.2973 78.684 74.6756 77.7781L75.8354 77.842C74.8426 79.0432 73.4486 79.8022 71.9704 79.9412C70.4919 80.0751 68.9963 79.583 67.8254 78.573L67.8241 78.5716C67.4782 78.273 67.4178 77.723 67.6898 77.3428C67.9618 76.9626 68.4629 76.8968 68.8093 77.1954C68.8114 77.1973 68.8169 77.2019 68.8191 77.2038C69.6516 77.9451 70.7736 78.3323 71.8485 78.2446C72.9237 78.1615 73.9888 77.6008 74.7236 76.7266L74.7287 76.7205C75.0096 76.3865 75.4839 76.3655 75.7882 76.6734C75.8231 76.7089 75.8562 76.7504 75.8838 76.7905C76.3892 77.5444 77.0182 78.1961 77.7356 78.6943C78.4521 79.1934 79.2562 79.5386 80.0905 79.6963C81.7582 80.0149 83.5623 79.5806 84.9635 78.5193L84.9644 78.5184C85.2772 78.2814 85.7056 78.3677 85.9211 78.7111C86.1353 79.053 86.0588 79.52 85.7506 79.7579Z" fill="#000072"/>
<path d="M84.0316 70.2396C84.2135 69.1512 84.7244 68.1361 85.4091 67.302C86.0954 66.4647 86.9756 65.8092 87.9484 65.4066C88.9213 65.0031 89.9663 64.8557 90.9736 64.9672C91.9787 65.0801 92.9571 65.4421 93.7556 66.0705C93.9358 66.2118 93.9771 66.487 93.8479 66.6848C93.7573 66.8234 93.6073 66.8873 93.4637 66.8644L93.4522 66.8626C92.5869 66.7222 91.7611 66.6928 90.9621 66.7921C90.1652 66.8901 89.4011 67.107 88.7007 67.4471C88.0003 67.7881 87.35 68.2514 86.7487 68.8009C86.1456 69.3537 85.608 69.9975 85.0818 70.7317L85.0665 70.7527C84.8668 71.0312 84.4991 71.0793 84.245 70.86C84.069 70.7079 83.9946 70.4663 84.0316 70.2396Z" fill="#000072"/>
<path d="M62.7455 64.9418C63.4247 64.3759 64.2853 64.0876 65.1552 64.0396C66.0278 63.9939 66.9245 64.194 67.7286 64.6334C68.5332 65.0724 69.2199 65.7362 69.7134 66.5274C70.2038 67.3182 70.5141 68.2451 70.5132 69.1814C70.5128 69.472 70.2982 69.7076 70.033 69.7071C69.8757 69.7071 69.7363 69.6236 69.6492 69.4953L69.6318 69.4696C69.2038 68.8319 68.7784 68.2908 68.3066 67.8262C67.8378 67.3615 67.3325 66.9785 66.7979 66.686C66.2628 66.394 65.6797 66.1818 65.0592 66.0507C64.4366 65.9173 63.7863 65.8706 63.0643 65.8799L63.0379 65.8804C62.7748 65.8837 62.5593 65.6523 62.5564 65.364C62.5555 65.1928 62.6308 65.0384 62.7455 64.9418Z" fill="#000072"/>
<path d="M92.614 46.6854C92.9264 42.7953 95.0803 39.1388 98.3876 37.4119C100.501 40.4917 101.752 44.2741 101.993 48.2533C98.7192 49.3375 95.0297 48.7968 92.614 46.6854Z" fill="white"/>
<path d="M101.993 48.2546C100.022 48.9054 97.8996 48.9683 95.9948 48.4533C94.7376 48.116 93.5753 47.5254 92.6135 46.6862C92.8944 43.1991 94.6518 39.9005 97.3952 38.0107C97.9502 37.6291 98.6812 37.8278 99.0382 38.4292C99.331 38.9181 99.6026 39.4223 99.8525 39.9402C101.081 42.4649 101.812 45.3063 101.993 48.2546Z" fill="#FFE04D"/>
<g opacity="0.2">
<path d="M101.993 48.2546C100.022 48.9054 97.8997 48.9684 95.9948 48.4533C95.8541 46.8509 96.1045 45.2098 96.7305 43.7538C97.4045 42.1854 98.5091 40.8499 99.8525 39.9402C101.081 42.4649 101.812 45.3063 101.993 48.2546Z" fill="#000072"/>
</g>
<path d="M63.4497 119.144C63.5445 116.173 65.3418 113.413 67.681 111.914C70.0198 110.414 73.0165 110.225 75.4968 111.42C76.8155 112.055 77.9698 113.043 79.0162 114.129C80.06 115.213 81.0422 116.463 81.4128 117.987C82.012 120.449 80.9045 122.98 80.5968 125.507C80.2168 128.627 81.1357 131.91 83.0465 134.258C81.2661 135.356 79.0587 134.895 77.0663 134.404C74.8308 133.853 72.566 133.29 70.5383 132.119C68.5102 130.948 63.2474 125.476 63.4497 119.144Z" fill="#610992"/>
<path d="M98.6414 49.5781C96.2104 49.5781 93.8729 48.7878 92.1691 47.2987C91.9816 47.1345 91.8813 46.8784 91.9022 46.6162C92.2162 42.7042 94.2005 39.1896 97.2104 37.2144C97.9869 36.7045 98.9899 36.9457 99.4931 37.763C101.365 40.8027 102.476 44.412 102.705 48.2014C102.727 48.5657 102.517 48.8988 102.199 49.0043C101.032 49.3905 99.8258 49.5781 98.6414 49.5781ZM93.368 46.3266C95.4178 47.9192 98.4098 48.4267 101.232 47.6687C100.94 44.3896 99.9351 41.2809 98.3095 38.6414C98.2304 38.5136 98.0702 38.4782 97.9435 38.5607C95.4747 40.1813 93.7475 43.1282 93.368 46.3266Z" fill="#000072"/>
<path d="M74.7964 75.9872C74.0777 75.6238 73.4534 75.0351 73.0267 74.3022C72.9349 74.1445 72.8567 73.9757 72.8188 73.7933C72.6238 72.8556 73.3824 72.4124 74.0581 72.2473C75.0327 72.0094 76.0675 72.0803 77.0076 72.4483C77.6269 72.6909 78.255 73.1108 78.2333 74.0125C78.2236 74.4128 78.0689 74.7953 77.8232 75.0915C77.2996 75.7222 76.5814 75.9308 75.8138 76.1085C75.4717 76.1873 75.1138 76.1481 74.7964 75.9872Z" fill="#000072"/>
<path d="M80.5571 136.908C80.7258 135.52 81.2579 134.216 82.0327 133.125L82.0284 134.375C81.3319 133.337 80.7896 132.189 80.4041 130.989C80.0144 129.79 79.8014 128.533 79.7322 127.276C79.6693 126.016 79.7645 124.753 80.0144 123.529C80.2724 122.31 80.7233 121.128 81.4186 120.143C81.5469 119.961 81.7849 119.928 81.9502 120.069C82.0782 120.178 82.1249 120.358 82.0807 120.519L82.079 120.525C81.77 121.632 81.5155 122.712 81.368 123.815C81.212 124.914 81.1984 126.033 81.3149 127.13C81.4254 128.229 81.6804 129.302 82.0425 130.319C82.4084 131.335 82.9035 132.289 83.5142 133.131C83.7794 133.497 83.7731 134.004 83.5253 134.36L83.51 134.381C82.9392 135.2 82.5763 136.19 82.4433 137.195L82.4428 137.197C82.3672 137.768 81.884 138.165 81.3633 138.082C80.8478 137.999 80.4887 137.475 80.5571 136.908Z" fill="#000072"/>
<path d="M83.4358 133.117C84.0801 134.135 84.9318 134.998 85.9688 135.558C87.002 136.124 88.2035 136.377 89.4198 136.335C89.5711 136.33 89.6982 136.46 89.7029 136.626C89.7071 136.776 89.6102 136.904 89.4798 136.931C88.2128 137.196 86.8511 137.165 85.5536 136.718C84.9063 136.497 84.2799 136.175 83.7002 135.767C83.1201 135.36 82.5871 134.869 82.1086 134.325L82.1022 134.317C81.7707 133.939 81.7809 133.338 82.1251 132.974C82.4694 132.611 83.0168 132.622 83.3483 133C83.3793 133.035 83.4103 133.077 83.4358 133.117Z" fill="#000072"/>
<path d="M81.9835 136.041C81.4714 136.095 80.9592 136.129 80.4471 136.141C79.9354 136.144 79.4237 136.139 78.9133 136.101C77.8929 136.034 76.8741 135.894 75.8724 135.647C73.8702 135.163 71.9199 134.328 70.1693 133.112C68.4247 131.89 66.896 130.296 65.7005 128.461C65.105 127.541 64.5874 126.57 64.1343 125.568C64.0277 125.314 63.9231 125.06 63.8241 124.803C63.7293 124.544 63.6456 124.281 63.5682 124.015C63.3991 123.491 63.3001 122.941 63.2206 122.391C63.1717 122.052 63.3821 121.735 63.6902 121.682C63.9227 121.641 64.1445 121.763 64.2601 121.97L64.2746 121.997C64.7812 122.909 65.1786 123.836 65.6231 124.739C66.0626 125.641 66.5564 126.506 67.1132 127.315C68.2377 128.922 69.6066 130.303 71.1736 131.347C72.7317 132.406 74.475 133.135 76.2838 133.554C78.0896 133.984 79.9711 134.109 81.8101 133.958L81.8211 133.957C82.3456 133.913 82.8029 134.345 82.8424 134.921C82.8807 135.49 82.4973 135.986 81.9835 136.041Z" fill="#000072"/>
<path d="M87.5614 145.204C87.1177 145.204 86.7208 144.863 86.629 144.367C86.374 142.989 86.5198 141.522 87.0395 140.237C87.2529 139.71 87.8156 139.471 88.2967 139.706C88.7774 139.94 88.9941 140.558 88.7808 141.086C88.4204 141.978 88.3192 142.995 88.496 143.951C88.601 144.517 88.2678 145.069 87.7523 145.184C87.6881 145.198 87.6243 145.204 87.5614 145.204Z" fill="#000072"/>
<path d="M95.4257 145.464C95.3705 145.464 95.3144 145.459 95.2583 145.448C94.7402 145.347 94.3951 144.804 94.4869 144.236C94.6743 143.075 94.526 141.848 94.0691 140.78C93.8456 140.258 94.05 139.635 94.526 139.39C95.0024 139.144 95.5694 139.369 95.7933 139.891C96.416 141.346 96.6183 143.019 96.3624 144.601C96.2804 145.108 95.8788 145.464 95.4257 145.464Z" fill="#000072"/>
<path d="M72.0803 144.529C71.6256 144.529 71.2231 144.17 71.1428 143.661C70.912 142.201 71.1589 140.691 71.8372 139.409C72.1016 138.91 72.6838 138.74 73.1394 139.03C73.5942 139.32 73.7489 139.96 73.4845 140.459C73.037 141.305 72.8678 142.342 73.0196 143.304C73.1092 143.874 72.762 144.415 72.2439 144.513C72.1891 144.523 72.1343 144.529 72.0803 144.529Z" fill="#000072"/>
<path d="M65.382 143.525C64.881 143.525 64.4611 143.096 64.4317 142.54C64.3582 141.144 64.6999 139.73 65.3935 138.558C65.68 138.073 66.2699 137.936 66.711 138.25C67.1522 138.565 67.2775 139.212 66.9911 139.697C66.5168 140.498 66.2835 141.465 66.3336 142.419C66.3642 142.996 65.963 143.49 65.4377 143.524C65.4194 143.525 65.4007 143.525 65.382 143.525Z" fill="#000072"/>
<path d="M97.0923 69.4304C103.981 64.305 112.474 61.9697 120.659 62.8808C120.743 62.8901 120.803 62.9722 120.795 63.0637C120.787 63.1537 120.715 63.2195 120.633 63.2134C112.499 62.5962 104.241 65.2156 97.7204 70.4134C97.476 70.6084 97.1339 70.5486 96.9567 70.2804C96.7795 70.0122 96.8334 69.6366 97.0778 69.4421C97.0816 69.4384 97.088 69.4337 97.0923 69.4304Z" fill="#000072"/>
<path d="M99.7073 74.2999C104.224 72.6285 109.065 72.133 113.768 72.7409C118.471 73.3478 123.056 75.0617 127.061 77.8141C127.167 77.8868 127.199 78.0403 127.133 78.1565C127.067 78.2717 126.929 78.3072 126.824 78.2377C122.834 75.6085 118.302 74.0224 113.691 73.5237C109.08 73.0236 104.372 73.6104 100.029 75.3183C99.7741 75.4186 99.4927 75.273 99.4013 74.9927C99.31 74.7123 99.4426 74.404 99.698 74.3032C99.7001 74.3023 99.7052 74.3004 99.7073 74.2999Z" fill="#000072"/>
<path d="M108.949 80.6436C113.971 80.6613 118.918 82.7069 122.666 86.2653C122.742 86.3372 122.75 86.4631 122.685 86.5462C122.621 86.6274 122.51 86.6376 122.434 86.5709C118.639 83.2275 113.759 81.4581 108.963 81.6372C108.713 81.6465 108.503 81.4319 108.495 81.1572C108.486 80.8824 108.682 80.6529 108.932 80.6436C108.937 80.6436 108.944 80.6436 108.949 80.6436Z" fill="#000072"/>
<path d="M55.1299 66.5958C51.2565 62.7541 46.5636 59.8791 41.515 58.2748C41.3395 58.2193 41.2384 58.0178 41.2894 57.8251C41.3391 57.6362 41.5172 57.5256 41.6897 57.5746C46.8768 59.045 51.7665 61.8286 55.872 65.667C56.1087 65.8881 56.1372 66.2781 55.9357 66.5379C55.7343 66.7978 55.379 66.8295 55.1422 66.6079C55.1393 66.6042 55.1333 66.599 55.1299 66.5958Z" fill="#000072"/>
<path d="M54.2063 70.4513C49.2508 69.857 44.1465 70.5544 39.4401 72.4899C39.2926 72.5506 39.1277 72.4685 39.0725 72.3066C39.0181 72.148 39.0895 71.9712 39.2306 71.9068C43.9583 69.7609 49.1632 68.8424 54.3053 69.2669C54.6037 69.2911 54.8276 69.5766 54.8055 69.9046C54.7834 70.2321 54.5233 70.4779 54.2246 70.4536C54.2195 70.4527 54.2114 70.4518 54.2063 70.4513Z" fill="#000072"/>
<path d="M53.3683 73.5932C47.9627 74.8611 42.9468 78.1126 39.3199 82.71C39.189 82.8761 38.9603 82.8943 38.809 82.7501C38.6586 82.6069 38.6416 82.3573 38.7708 82.1913C42.4747 77.433 47.6104 74.0466 53.1902 72.6924C53.4163 72.6373 53.6403 72.7945 53.6904 73.0427C53.7406 73.2909 53.5978 73.5367 53.3712 73.5918L53.3683 73.5932Z" fill="#000072"/>
<g opacity="0.2">
<path d="M112.216 114.726C111.554 122.082 108.718 129.181 104.239 134.699C104.551 144.752 95.0616 144.678 89.4248 144.205C87.3032 144.03 85.1124 143.437 83.4952 141.916C81.8785 140.395 81.5475 138.191 81.5475 135.734C81.3405 138.351 80.7378 139.786 79.1041 141.2C77.4704 142.611 75.368 143.246 73.2914 143.385C71.2149 143.521 69.1409 143.197 67.0809 142.873C65.3545 142.601 63.4446 142.217 62.4016 140.682C61.6944 139.645 61.5397 138.251 61.7276 136.968C61.9108 135.685 62.4038 134.488 62.8921 133.303C51.1736 114.17 61.8606 101.655 64.9801 98.6358C69.8022 99.1951 75.7917 99.3094 77.1015 99.2884C73.2455 103.901 66.1931 103.092 63.748 107.934C59.6166 116.115 63.8279 123.807 66.4663 126.079C68.4953 127.822 70.9148 129.118 73.4839 129.317C76.0535 129.516 78.7705 128.494 80.3872 126.293C81.8964 132.067 88.1464 134.484 93.0616 134.793C94.5214 134.885 94.8852 137.166 93.6404 138.008C92.5928 138.717 91.3169 139.163 89.8932 139.488C91.9532 141.069 94.8487 140.821 97.0489 139.485C99.2517 138.152 100.873 135.909 102.24 133.593C105.945 127.307 108.217 120.02 108.858 112.567C109.172 108.91 109.072 105.079 107.605 101.78C106.139 98.4786 103.031 95.8517 99.6924 96.0924C102.629 95.6035 105.563 95.1146 108.498 94.6262C111.509 100.58 112.843 107.752 112.216 114.726Z" fill="#000072"/>
</g>
<g opacity="0.2">
<path d="M106.425 108.155C106.951 109.695 106.181 115.285 99.8683 115.852C93.5558 116.419 86.5 109.628 86.7367 97.8584C86.7367 97.8584 89.9556 107.345 96.578 107.429C103.2 107.513 105.394 105.134 106.425 108.155Z" fill="#000072"/>
</g>
<path d="M119.103 92.0684C119.048 92.3874 119.017 92.5857 119.017 92.5857V92.0264C119.018 92.0264 119.046 92.0394 119.103 92.0684Z" fill="#543823"/>
<g opacity="0.2">
<path d="M68.7275 78.2074L68.4088 80.5838C68.4088 80.5838 72.2771 82.4722 75.0328 80.5838C75.0328 80.5838 79.5744 85.1368 85.0003 81.2476V79.3956C85.0003 79.3956 79.0988 83.4919 75.2797 77.2852C75.2793 77.2852 72.9342 81.0242 68.7275 78.2074Z" fill="#000072"/>
</g>
<g filter="url(#filter0_d_168_425)">
<path d="M61.5594 170.482V172.45H55.6688V170.482H61.5594ZM56.4735 165.904V177.279H53.9266V165.904H56.4735ZM63.3173 165.904V177.279H60.7782V165.904H63.3173ZM81.7323 171.341V171.849C81.7323 172.713 81.6125 173.49 81.3729 174.177C81.1385 174.865 80.8026 175.45 80.3651 175.935C79.9328 176.419 79.4171 176.792 78.8182 177.052C78.2244 177.307 77.5656 177.435 76.8416 177.435C76.1177 177.435 75.4562 177.307 74.8573 177.052C74.2583 176.792 73.7375 176.419 73.2948 175.935C72.8573 175.45 72.5187 174.865 72.2791 174.177C72.0395 173.49 71.9198 172.713 71.9198 171.849V171.341C71.9198 170.476 72.0395 169.7 72.2791 169.013C72.5187 168.32 72.8546 167.732 73.2869 167.247C73.7244 166.763 74.2427 166.393 74.8416 166.138C75.4406 165.878 76.102 165.747 76.826 165.747C77.55 165.747 78.2114 165.878 78.8104 166.138C79.4093 166.393 79.925 166.763 80.3573 167.247C80.7948 167.732 81.1333 168.32 81.3729 169.013C81.6125 169.7 81.7323 170.476 81.7323 171.341ZM79.1619 171.849V171.325C79.1619 170.747 79.1099 170.237 79.0057 169.794C78.9015 169.346 78.7505 168.971 78.5526 168.669C78.3546 168.367 78.1099 168.141 77.8182 167.99C77.5265 167.833 77.1958 167.755 76.826 167.755C76.4406 167.755 76.1046 167.833 75.8182 167.99C75.5317 168.141 75.2895 168.367 75.0916 168.669C74.8989 168.971 74.7505 169.346 74.6463 169.794C74.5474 170.237 74.4979 170.747 74.4979 171.325V171.849C74.4979 172.422 74.5474 172.932 74.6463 173.38C74.7505 173.823 74.9015 174.198 75.0994 174.505C75.2974 174.812 75.5395 175.044 75.826 175.2C76.1177 175.357 76.4562 175.435 76.8416 175.435C77.2114 175.435 77.5395 175.357 77.826 175.2C78.1177 175.044 78.3625 174.812 78.5604 174.505C78.7583 174.198 78.9067 173.823 79.0057 173.38C79.1099 172.932 79.1619 172.422 79.1619 171.849ZM94.8191 173.325H91.9598V171.349H94.8191C95.241 171.349 95.5795 171.279 95.8348 171.138C96.0952 170.997 96.2853 170.805 96.4051 170.56C96.5301 170.31 96.5926 170.029 96.5926 169.716C96.5926 169.393 96.5301 169.094 96.4051 168.818C96.2853 168.536 96.0952 168.31 95.8348 168.138C95.5795 167.966 95.241 167.88 94.8191 167.88H92.8816V177.279H90.3348V165.904H94.8191C95.7254 165.904 96.5014 166.068 97.1473 166.396C97.7983 166.724 98.2957 167.174 98.6394 167.747C98.9884 168.315 99.1629 168.966 99.1629 169.7C99.1629 170.435 98.9884 171.073 98.6394 171.615C98.2957 172.156 97.7983 172.578 97.1473 172.88C96.5014 173.177 95.7254 173.325 94.8191 173.325ZM115.484 175.31V177.279H109.429V175.31H115.484ZM110.297 165.904V177.279H107.75V165.904H110.297ZM114.703 170.482V172.388H109.429V170.482H114.703ZM115.492 165.904V167.88H109.429V165.904H115.492Z" fill="#610992"/>
</g>
<defs>
<filter id="filter0_d_168_425" x="51.9266" y="165.747" width="65.5653" height="17.6875" filterUnits="userSpaceOnUse" color-interpolation-filters="sRGB">
<feFlood flood-opacity="0" result="BackgroundImageFix"/>
<feColorMatrix in="SourceAlpha" type="matrix" values="0 0 0 0 0 0 0 0 0 0 0 0 0 0 0 0 0 0 127 0" result="hardAlpha"/>
<feOffset dy="4"/>
<feGaussianBlur stdDeviation="1"/>
<feComposite in2="hardAlpha" operator="out"/>
<feColorMatrix type="matrix" values="0 0 0 0 0 0 0 0 0 0 0 0 0 0 0 0 0 0 0.25 0"/>
<feBlend mode="normal" in2="BackgroundImageFix" result="effect1_dropShadow_168_425"/>
<feBlend mode="normal" in="SourceGraphic" in2="effect1_dropShadow_168_425" result="shape"/>
</filter>
</defs>
</svg>
